<?xml version="1.0" encoding="UTF-8" standalone="no"?>
<!-- Created with Inkscape (http://www.inkscape.org/) -->

<svg
   xmlns:dc="http://purl.org/dc/elements/1.1/"
   xmlns:cc="http://creativecommons.org/ns#"
   xmlns:rdf="http://www.w3.org/1999/02/22-rdf-syntax-ns#"
   xmlns:svg="http://www.w3.org/2000/svg"
   xmlns="http://www.w3.org/2000/svg"
   xmlns:sodipodi="http://sodipodi.sourceforge.net/DTD/sodipodi-0.dtd"
   xmlns:inkscape="http://www.inkscape.org/namespaces/inkscape"
   width="129.38162mm"
   height="129.26985mm"
   viewBox="0 0 129.38162 129.26985"
   version="1.1"
   id="svg5077"
   inkscape:version="0.92.4 (unknown)"
   sodipodi:docname="cube1.svg">
  <defs
     id="defs5071" />
  <sodipodi:namedview
     id="base"
     pagecolor="#ffffff"
     bordercolor="#666666"
     borderopacity="1.0"
     inkscape:pageopacity="0.0"
     inkscape:pageshadow="2"
     inkscape:zoom="1.4"
     inkscape:cx="172.01837"
     inkscape:cy="376.44007"
     inkscape:document-units="mm"
     inkscape:current-layer="g5137"
     showgrid="false"
     fit-margin-top="0"
     fit-margin-left="0"
     fit-margin-right="0"
     fit-margin-bottom="0"
     inkscape:window-width="1920"
     inkscape:window-height="1015"
     inkscape:window-x="1920"
     inkscape:window-y="0"
     inkscape:window-maximized="1" />
  <metadata
     id="metadata5074">
    <rdf:RDF>
      <cc:Work
         rdf:about="">
        <dc:format>image/svg+xml</dc:format>
        <dc:type
           rdf:resource="http://purl.org/dc/dcmitype/StillImage" />
        <dc:title></dc:title>
      </cc:Work>
    </rdf:RDF>
  </metadata>
  <g
     inkscape:label="Layer 1"
     inkscape:groupmode="layer"
     id="layer1"
     transform="translate(-35.094905,-48.668644)">
    <g
       id="g5137"
       transform="matrix(0.26458333,0,0,0.26458333,35.095011,48.612817)">
      <g
         id="g5081"
         style="opacity:1;stroke-width:4.15748024;stroke-miterlimit:4;stroke-dasharray:none">
	<path
   id="path5079"
   d="m 470.401,75.561 -219.7,-74.6 c -5.2,-1 -9.4,-1 -13.5,0 l -219.8,74.7 c -17.9,5.5 -17.4,19.6 -17.4,20 v 287.1 c 0,8.3 5.2,15.6 13.5,18.7 l 223.7,86.3 c 4,1.7 12.5,1 14.6,0 l 223.7,-86.2 c 8.3,-3.1 13.5,-10.4 13.5,-18.7 v -287.2 c 0,-6.2 -3.8,-18.2 -18.6,-20.1 z m -225.9,-34 164.4,55.1 -164.4,62.5 -164.4,-62.5 z m -203.9,326.7 v -242.4 l 183.1,69.7 v 243.4 z m 407.8,0 -183.1,70.7 v -242.8 l 183.1,-70.3 z"
   inkscape:connector-curvature="0"
   style="fill:#0066ff;stroke-width:4.15748024;stroke-miterlimit:4;stroke-dasharray:none" />

</g>
      <g
         id="g5083">
</g>
      <g
         id="g5085">
</g>
      <g
         id="g5087">
</g>
      <g
         id="g5089">
</g>
      <g
         id="g5091">
</g>
      <g
         id="g5093">
</g>
      <g
         id="g5095">
</g>
      <g
         id="g5097">
</g>
      <g
         id="g5099">
</g>
      <g
         id="g5101">
</g>
      <g
         id="g5103">
</g>
      <g
         id="g5105">
</g>
      <g
         id="g5107">
</g>
      <g
         id="g5109">
</g>
      <g
         id="g5111">
</g>
    </g>
  </g>
  <g
     inkscape:groupmode="layer"
     id="layer2"
     inkscape:label="Layer 2"
     transform="translate(-35.094905,-48.668644)" />
</svg>
